<svg xmlns="http://www.w3.org/2000/svg" width="400" height="400">
  <g fill-rule="evenodd">
    <path
      d="M165.81 12.885c-7.034.197-12.884.504-13 .681-.115.177-2.1.451-4.41.61-2.31.158-5.64.532-7.4.831-6.654 1.128-10.407 1.905-10.6 2.193-.11.164-1.505.53-3.1.813-1.595.284-2.9.637-2.9.786 0 .148-1.44.599-3.2 1.001-1.76.402-3.2.861-3.2 1.021 0 .159-.675.413-1.5.564-.825.151-1.873.514-2.329.807-.456.293-1.626.769-2.6 1.056-.974.288-2.009.755-2.3 1.038-.29.283-.815.514-1.166.514-.656 0-8.947 3.902-9.305 4.379-.11.147-.83.516-1.6.821-.77.305-1.49.66-1.6.788-.11.129-.965.571-1.9.984-.935.412-1.7.869-1.7 1.014 0 .146-.63.512-1.4.814-.77.302-1.4.674-1.4.826 0 .152-.527.495-1.171.762s-1.269.739-1.388 1.049c-.119.309-.417.563-.663.563-.462 0-3.988 2.34-4.424 2.936-.135.185-.685-.085-1.223-.6-1.675-1.604-3.996-3.535-4.27-3.552-.143-.009-.884-.549-1.646-1.2-.762-.651-1.617-1.184-1.9-1.184-.283 0-.515-.153-.515-.339 0-.187-.765-.679-1.7-1.093-.935-.415-1.938-.982-2.229-1.261-.29-.279-.705-.507-.922-.507-.216 0-1.154-.347-2.085-.771-.93-.424-2.226-.901-2.878-1.061-.652-.16-1.278-.429-1.389-.597-.214-.321-4.785-1.335-9.197-2.04-3.038-.486-13.904-.213-15.029.378-.424.223-1.941.618-3.371.879-1.43.26-2.771.64-2.98.843-.209.203-.609.369-.888.369-.575 0-4.616 1.714-6.132 2.601-.55.322-1.585.86-2.3 1.197-.715.337-1.3.79-1.3 1.007 0 .217-.225.398-.5.402-.688.01-2.721 1.679-6.082 4.993-3.569 3.519-5.156 5.588-6.902 9-.394.77-.941 1.638-1.216 1.929-.275.29-.5.705-.5.922 0 .216-.349 1.158-.775 2.094-.426.935-.992 2.59-1.257 3.678-.266 1.087-.633 2.17-.817 2.407-1.27 1.639-1.265 19.152.006 20.732.194.241.485 1.248.648 2.238.162.99.465 2.25.673 2.8.208.55.35 1.07.316 1.155-.034.086.097.266.291.4.195.135.577 1.01.851 1.945.273.935.64 1.7.816 1.7.176 0 .558.72.848 1.6.29.88.677 1.6.859 1.6.181 0 .575.585.874 1.3.299.715.841 1.547 1.205 1.849.364.302.662.791.662 1.086 0 .295.36.73.8.965.44.235.8.634.8.886 0 .813 7.872 8.148 10.045 9.359.745.415 1.499.98 1.675 1.255.176.275.553.5.839.5.285 0 .939.365 1.454.811.514.446 1.351.915 1.861 1.043.509.128.926.381.926.562 0 .182.36.444.8.584.768.244 1.163 1.8.457 1.8-.189 0-.579 1.395-.866 3.1-.288 1.705-.649 3.19-.803 3.3-.154.11-.557 2-.896 4.2-.338 2.2-.716 4.45-.839 5-.955 4.249-1.052 17.216-1.053 139.9V400H50l.003-129.7c.003-83.134.147-131.322.404-134.218.723-8.171 2.587-18.139 4.459-23.842.906-2.762 1.072-2.549-3.266-4.223-22.71-8.769-30.04-15.608-30.696-28.643-.946-18.81 20.319-31.067 36.617-21.106 3.512 2.147 7.106 4.446 7.879 5.039.22.169 1.84 1.366 3.6 2.66s4.484 3.435 6.054 4.757l2.855 2.405 1.369-1.265c9.487-8.762 23.278-17.131 35.522-21.556 15.228-5.504 26.728-8.274 42.8-10.308 3.41-.432 6.65-.875 7.2-.985 13.27-2.656 59.334-1.846 81.4 1.431 30.613 4.547 56.362 14.934 71.736 28.937 2.215 2.019 2.296 2.02 4.572.104 3.268-2.751 11.411-8.523 14.951-10.597 17.15-10.049 37.741.284 37.741 18.938 0 12.826-6.517 20.126-24.8 27.777-1.65.691-3.567 1.512-4.26 1.825-.694.314-1.462.57-1.708.57-.483 0-.317 1.01.64 3.906 1.878 5.681 3.815 15.961 4.503 23.894.278 3.2.418 48.025.421 134.5L350 400h25.2V270.022c0-126.012-.107-138.627-1.193-141.022-.199-.44-.565-2.416-.812-4.392-.247-1.975-.591-3.775-.763-4-.173-.224-.547-1.803-.83-3.508-.283-1.705-.67-3.1-.859-3.1-.817 0-.236-.746.957-1.229.715-.289 1.39-.626 1.5-.748.11-.123.83-.545 1.6-.939 2.693-1.378 6.477-3.883 6.92-4.58.176-.277.492-.504.702-.504.503 0 7.978-7.469 7.978-7.972 0-.213.239-.532.531-.708.292-.176.877-.95 1.3-1.72.423-.77.994-1.544 1.269-1.72.275-.176.5-.506.5-.733 0-.227.604-1.443 1.342-2.703.738-1.259 1.662-3.269 2.053-4.467.391-1.197.852-2.357 1.024-2.577 2.079-2.659 2.084-27.615.006-28.999-.166-.111-.431-.741-.588-1.401-.386-1.618-2.623-6.2-3.027-6.2-.178 0-.428-.417-.556-.926-.128-.51-.583-1.365-1.013-1.9-.429-.536-1.199-1.503-1.711-2.149-2.397-3.025-6.551-6.854-9.535-8.788-.987-.639-2.245-1.459-2.795-1.822-.55-.362-1.63-.909-2.4-1.214-.77-.306-1.49-.657-1.6-.78-.11-.124-.92-.464-1.8-.756s-2.142-.775-2.805-1.072c-.662-.297-2.192-.666-3.4-.82-1.207-.154-2.375-.4-2.595-.547-1.077-.721-17.245-.885-17.733-.181-.147.212-1.61.609-3.252.883-1.641.274-3.081.656-3.2.849-.119.192-.9.478-1.736.634-.835.157-1.736.503-2.003.77-.266.266-1.017.618-1.668.781-.652.164-2.328.959-3.725 1.768-1.398.808-2.912 1.679-3.366 1.934-.454.255-.936.615-1.071.801-.135.185-1.003.85-1.927 1.478-.925.627-2.277 1.706-3.006 2.398-2.34 2.225-2.563 2.349-3.171 1.767-.608-.582-6.212-4.387-7.142-4.848-.33-.164-1.32-.736-2.2-1.271-.88-.535-2.23-1.291-3-1.681-.77-.389-1.627-.922-1.904-1.184-.278-.261-1.133-.702-1.9-.98-.768-.278-1.396-.641-1.396-.808 0-.167-.72-.52-1.6-.783-.88-.264-1.6-.617-1.6-.785 0-.168-.6-.504-1.333-.746s-2.031-.796-2.884-1.231c-.854-.435-1.808-.791-2.12-.791-.313 0-1.13-.345-1.816-.766-.686-.422-1.922-.892-2.747-1.045-.825-.153-1.5-.415-1.5-.582 0-.166-.855-.542-1.9-.833-1.045-.291-2.325-.749-2.844-1.017-.519-.268-2.094-.716-3.5-.996-1.406-.279-2.556-.631-2.556-.781 0-.15-1.35-.513-3-.806-1.65-.293-3-.648-3-.789 0-.141-1.575-.497-3.5-.791-1.925-.295-3.59-.654-3.7-.798-.253-.333-5.899-1.106-10.6-1.452-1.98-.146-3.69-.396-3.8-.556-.739-1.076-52.212-1.521-81.39-.703m183.587 60.443c-5.576 1.161-11.622 4.435-16.668 9.027-2.26 2.056-2.577 3.602-.956 4.664 1.182.774 1.786.51 5.052-2.208 4.055-3.374 4.889-3.747 7.684-3.43 4.099.463 9.677 2.783 10.465 4.352 1.506 2.997 2.519 3.799 4.105 3.244 3.484-1.217-.14-7.15-6.086-9.963-3.037-1.437-2.815-1.567 2.216-1.301 4.322.228 4.421.214 5.033-.721 1.992-3.04-4.045-5.08-10.845-3.664M36.916 74.834c-1.903.942-2.437 2.02-1.69 3.414.575 1.074 1.186 1.144 4.35.498 3.213-.657 10.594 1.044 7.924 1.826-6.793 1.989-11.5 5.846-11.5 9.424 0 2.798 3.046 3.058 4.414.376 1.782-3.493 6.835-5.758 13.386-6.001 2.87-.107 2.734-.158 5.362 2.029 2.655 2.21 4.47 2.636 5.224 1.226.678-1.266.485-1.995-.886-3.35-7.694-7.604-20.854-12.278-26.584-9.442m113.087 26.214c-18.809 4.109-25.579 27.23-12.003 40.994 14.558 14.759 39.997 5.427 41.462-15.21 1.165-16.413-13.521-29.267-29.459-25.784m133.194.149c-19.414 4.779-25.243 29.683-9.931 42.426 15.979 13.298 39.934 1.899 39.934-19.003 0-15.491-14.917-27.136-30.003-23.423m-92.335 51.645c-9.845 2.268-16.258 7.673-17.228 14.519-2.44 17.233 32.859 24.939 47.485 10.365 13.131-13.084-7.573-30.112-30.257-24.884"
      fill="#2f4249"/>
    <path
      d="M186.6 37.831c-28.92 1.192-54.48 5.93-73.6 13.645-5.355 2.16-14.391 6.628-17.624 8.713-1.307.843-3.096 1.998-3.976 2.566-2.365 1.528-8.894 6.717-11.287 8.971l-2.087 1.965-3.113-2.57c-16.755-13.832-25.726-17.59-36.072-15.11-22.102 5.298-23.951 33.127-2.969 44.681 3.247 1.788 18.148 8.108 19.116 8.108 1.031 0 1.034.713.016 4.225-1.578 5.446-3.299 14.574-4.069 21.575-.653 5.948-.711 15.545-.827 135.9L49.985 400H349.8l-.032-129.5c-.037-149.354.239-140.075-4.654-156.9-1.739-5.982-1.893-5.498 2.286-7.191 15.826-6.414 21.479-10.431 24.97-17.745 8.698-18.226-6.55-37.078-26.433-32.681-5.586 1.236-14.786 6.736-23.563 14.088-2.239 1.875-2.17 1.878-4.365-.133-11.211-10.27-28.06-18.647-49.409-24.565-9.138-2.533-22.673-4.873-34.6-5.98-3.41-.317-8.27-.769-10.8-1.004-4.529-.422-30.353-.816-36.6-.558m-50.188 27.185c41.584 5.137 65.502 49.504 46.803 86.82l-2.252 4.495 2.018-1.025c8.846-4.493 26.184-4.729 31.756-.431.577.445.574.406-.024-.299-3.262-3.847-7.253-16.508-7.904-25.076-3.426-45.054 43.459-76.747 83.791-56.643 44.089 21.977 42.351 85.802-2.871 105.476-12.883 5.605-30.947 6.237-42.251 1.478l-1.523-.64 1.984 2.588c3.258 4.25 4.637 10.021 3.261 13.641-.285.751-.259 1.303.093 1.926 1.052 1.865.644 8.22-.682 10.618-3.095 5.595-9.289 8.344-19.691 8.74l-5.68.216-.255-1.15c-.14-.633-.315-1.33-.388-1.55-.166-.496-.316 13.678-.206 19.442.21 11.026-2.268 12.358-22.991 12.358-17.945 0-20.467-.71-22.37-6.295-.699-2.051-.881-8.505-.24-8.505.254 0 .254-.359 0-1.026-.214-.564-.403-4.839-.418-9.5-.027-8.235-.045-8.418-.64-6.474-.894 2.918-.645 2.879-10.036 1.573-11.873-1.651-17.317-6.371-16.721-14.496.349-4.754.35-5.94.011-8.4-.411-2.984.67-6.723 2.873-9.942.955-1.394 1.659-2.535 1.566-2.535-.094 0-1.629.538-3.411 1.195-29.018 10.699-61.834-2.651-75.206-30.595-20.485-42.81 14.607-91.789 61.604-85.984m223.384 8.754c3.047 2.324.528 5.538-3.296 4.205-.67-.234-2.002-.369-2.959-.3l-1.741.125 1.8.954c5.485 2.906 8.642 7.79 6.538 10.115-1.305 1.441-3.448.863-4.516-1.218-1.54-3.003-5.003-4.922-10.144-5.623-3.724-.508-4.22-.322-8.572 3.218-3.097 2.519-4.641 2.959-5.808 1.654-1.877-2.099-.573-3.922 6.145-8.587 7.852-5.454 18.537-7.606 22.553-4.543M47.8 74.545c4.972 1.328 10.924 4.823 15.7 9.22 2.053 1.89 2.256 3.34.646 4.606-1.486 1.169-1.676 1.11-5.171-1.59l-3.13-2.419-2.223.256c-7.051.812-11.68 2.935-12.78 5.861-.961 2.554-4.186 2.963-5.005.635-1.149-3.267 3.023-7.891 9.163-10.156 2.366-.873 2.384-.891 1.297-1.313-1.401-.543-5.483-.686-8.164-.287-5.037.75-4.904-4.338.141-5.395 1.958-.411 6.952-.106 9.526.582m123 94.13c-1.21 1.229-1.84 2.096-1.4 1.926.44-.17 1.43-.537 2.2-.815.905-.327 1.445-.805 1.528-1.351.306-2.008-.162-1.96-2.328.24m54.871-.02c.071.36.574.819 1.117 1.02l.989.365-.958-1.02c-1.12-1.192-1.324-1.257-1.148-.365m-6.296 65.845l-1.175 1.3 1.3-1.175c.715-.646 1.3-1.231 1.3-1.3 0-.309-.33-.037-1.425 1.175m-35.675 2.576c.385.1 1.015.1 1.4 0 .385-.101.07-.183-.7-.183s-1.085.082-.7.183"
      fill="#74e3fb"/>
    <path
      d="M121.8 65.013c-58.982 7.712-72.609 87.283-19.513 113.935 16.845 8.455 43.398 8.181 53.713-.554 3.084-2.612 4.172-3.312 8.568-5.518 4.662-2.339 8.255-5.602 9.657-8.771 1.213-2.743 2.52-4.416 4.766-6.099 7.591-5.687 12.837-30.735 9.469-45.206-7.361-31.628-35.572-51.852-66.66-47.787m136.2 2.06c-26.827 2.775-49.128 25.842-51.185 52.943-1.117 14.707 3.806 31.989 10.32 36.237 4.469 2.914 8.065 7.433 8.065 10.134 0 .861 2.604 4.013 3.315 4.013 1.519 0 9.75 4.466 12.813 6.953 6.464 5.248 23.997 7.263 36.627 4.209 36.744-8.882 55.546-49.218 38.628-82.869-10.87-21.622-34.088-34.154-58.583-31.62m-95.742 34.165c17.816 5.447 23.508 27.924 10.378 40.983-14.351 14.274-38.338 6.599-41.708-13.344-3.002-17.773 14.139-32.894 31.33-27.639m134.021.155c17.734 5.644 23.091 27.642 9.947 40.846-15.459 15.529-41.929 4.647-41.933-17.239-.004-16.735 16.14-28.65 31.986-23.607M193.2 209.341c-4.925.488-12.596.552-14.47.12-2.076-.478-2.325.717-2.328 11.168-.004 16.14.315 16.371 22.598 16.371 18.933 0 19.649-.166 22.329-5.173 1.553-2.901 1.513-19.973-.051-21.773-.797-.917-20.875-1.427-28.078-.713"
      fill="#fbfbfb"/>
    <path
      d="M149.6 100.8c-1.344.431.108.431 1.8 0 1.078-.274 1.098-.306.2-.313-.55-.004-1.45.137-2 .313m9.4 0c1.692.431 3.144.431 1.8 0-.55-.176-1.45-.317-2-.313-.898.007-.878.039.2.313m133.6 0c1.692.431 3.144.431 1.8 0-.55-.176-1.45-.317-2-.313-.898.007-.878.039.2.313m5.433 1.349c.412.368 2.767 1.451 2.767 1.272 0-.231-2.218-1.421-2.647-1.421-.157 0-.211.067-.12.149m-26.847 5.751L269 110.2l2.3-2.186c1.265-1.203 2.3-2.238 2.3-2.3 0-.297-.382.049-2.414 2.186m-134.831 1.2c-1.274 1.408-2.099 2.5-1.889 2.5.091 0 .842-.81 1.669-1.8 1.652-1.976 1.8-2.447.22-.7m40.323 4.295c.366.767.736 1.324.823 1.237.183-.183-1.031-2.632-1.305-2.632-.101 0 .116.628.482 1.395m89.387 2.022c-.67 1.471-.542 1.785.182.448.339-.625.541-1.211.449-1.302-.091-.092-.375.293-.631.854m-134.419 1.822c-.245.704-.433 1.479-.418 1.721.016.242.286-.264.602-1.125.315-.861.503-1.635.418-1.72-.086-.086-.356.42-.602 1.124m180.822 1.161c.02 1.039.65 2.746.664 1.8.006-.44-.143-1.16-.332-1.6-.211-.49-.339-.568-.332-.2m-47.812 1.284c-.135.504-.228 1.366-.207 1.916.023.589.182.271.387-.775.367-1.873.237-2.698-.18-1.141M313.337 125c.002 1.76.072 2.43.156 1.489.085-.94.084-2.38-.002-3.2-.086-.819-.155-.049-.154 1.711m-133.613 0c.002 1.32.077 1.812.166 1.093.089-.719.087-1.799-.004-2.4s-.164-.013-.162 1.307m-49.21 0c.003 1.1.081 1.503.173.895.092-.609.09-1.509-.005-2-.095-.492-.171.005-.168 1.105m182.108 5.222c-.15.803-.194 1.54-.096 1.638.098.097.301-.479.452-1.282.15-.803.194-1.54.096-1.638-.098-.097-.301.479-.452 1.282m-134.578 3.022c-.246.707-.378 1.356-.292 1.441.086.086.357-.423.604-1.129.246-.707.378-1.356.292-1.441-.086-.086-.357.423-.604 1.129m132.634 2.561c-.366.767-.583 1.395-.482 1.395.274 0 1.488-2.449 1.305-2.632-.087-.087-.457.47-.823 1.237m-137.852 5.911c-2.043 2.288-2.181 2.512-.668 1.084 1.655-1.562 3.744-4.032 3.369-3.984-.07.009-1.285 1.314-2.701 2.9m133.16.584l-2.186 2.3 2.3-2.186c2.137-2.032 2.483-2.414 2.186-2.414-.062 0-1.097 1.035-2.3 2.3m-168.186.1c1.083 1.1 2.06 2 2.17 2 .11 0-.687-.9-1.77-2s-2.06-2-2.17-2c-.11 0 .687.9 1.77 2m134.6.911c0 .076.585.567 1.3 1.09.804.589 1.084.686.733.254-.533-.656-2.033-1.648-2.033-1.344m26.4 3.889c-.77.422-1.22.766-1 .766.22 0 1.03-.344 1.8-.766.77-.422 1.22-.766 1-.766-.22 0-1.03.344-1.8.766m-148.2 1.985c1.222.326 4.47.535 4.167.268-.092-.081-1.337-.246-2.767-.368-1.638-.139-2.156-.103-1.4.1m6.6.015l-1.8.28 1.6.013c.88.007 2.14-.125 2.8-.293 1.6-.407.019-.407-2.6 0m129.105.283c.497.096 1.217.092 1.6-.008.382-.1-.025-.179-.905-.174-.88.004-1.193.086-.695.182m3.595-.001c.495.096 1.305.096 1.8 0 .495-.095.09-.173-.9-.173s-1.395.078-.9.173m-70.214 8.888c1.037.917 2.34 2.245 2.896 2.949.555.705 1.011 1.142 1.014.972.007-.492-3.226-3.863-4.571-4.767-.674-.452-.376-.072.661.846m-43.154 1.93c-1.238 1.545-2.294 3.3-1.986 3.3.096 0 .542-.585.991-1.3.449-.715 1.202-1.795 1.673-2.4.471-.605.782-1.1.69-1.1-.091 0-.707.675-1.368 1.5m48.112 5.1c.329 1.471.558 1.79.55.767-.003-.422-.189-1.037-.412-1.367-.297-.438-.334-.276-.138.6m.552 4.924c-.011 3.119-4.076 8.304-8.474 10.811-15.451 8.806-39.646 3.286-43.105-9.835-.519-1.97-.399-1.938-3.403-.905-12.778 4.397-21.176 12.925-21.099 21.428.072 8.086 6.658 12.104 22.116 13.494l5.369.483.124 2.185c.078 1.383.247 1.986.459 1.642.272-.439.681-.455 2.153-.085 2.269.571 6.737.569 10.664-.006 4.946-.723 30.403-.457 31.27.327.642.581.696.467.809-1.717l.121-2.34 5.2-.488c16.097-1.51 22.634-5.778 22.132-14.451-.47-8.119-9.193-16.47-21.617-20.696l-2.715-.923-.004 1.076"
      fill="#c38b74"/>
    <path
      d="M198.115 37.496c1.273.08 3.253.079 4.4-.002 1.147-.08.105-.145-2.315-.144-2.42.001-3.358.066-2.085.146m-14.015.398c1.045.082 2.755.082 3.8 0s.19-.15-1.9-.15-2.945.068-1.9.15m28 0c1.045.082 2.755.082 3.8 0s.19-.15-1.9-.15-2.945.068-1.9.15m-41.687.568c-2.523.192-5.403.521-6.4.732-1.685.357-1.629.37.787.189 1.43-.107 5.3-.391 8.6-.631 3.3-.239 6.075-.506 6.167-.594.245-.232-3.921-.094-9.154.304M221 38.21c.22.08 3.01.339 6.2.575 11.239.83 11.152.826 9.4.449-2.795-.602-16.99-1.534-15.6-1.024m-65.912 1.982c-2.152.274-4.042.631-4.2.792-.316.322 2.846-.009 7.512-.787 3.88-.646 1.738-.65-3.312-.005m84.145-.427c.266.263 9.64 1.495 9.842 1.293.26-.259-1.531-.591-5.675-1.052-4.075-.452-4.399-.471-4.167-.241m-95.564 2.318c-1.172.213-2.039.48-1.926.593.226.227 5.857-.65 5.857-.912 0-.243-1.525-.119-3.931.319m109.608-.089c.593.178 2.033.423 3.2.543l2.123.219-2-.54c-1.1-.296-2.54-.541-3.2-.543l-1.2-.004 1.077.325M135.668 43.87c-1.392.33-2.45.681-2.35.781.208.209 5.882-1.029 5.882-1.283 0-.26-.785-.148-3.532.502m126.551-.105c.89.295 2.42.649 3.4.786l1.781.248-1.756-.574c-.965-.315-2.495-.669-3.4-.786l-1.644-.212 1.619.538m-132.598 1.673c-1.198.322-2.278.691-2.4.821-.272.289 2.005-.187 4.17-.871 2.225-.704.894-.666-1.77.05m138.04-.466c.364.395 4.781 1.52 5.022 1.278.184-.183-1.162-.606-4.083-1.284-.66-.153-1.082-.151-.939.006M123.8 47.101c-1.1.339-1.814.683-1.586.763.228.08 1.398-.203 2.6-.63 2.593-.92 1.85-1.017-1.014-.133m152.158.347c1.626.534 3.039.889 3.138.789.21-.21-4.955-1.856-5.638-1.798-.252.022.873.476 2.5 1.009m-157.073 1.329c-1.164.396-2.244.862-2.4 1.035-.157.174-.015.223.315.11s1.545-.516 2.7-.896c1.155-.38 2.1-.766 2.1-.858 0-.264-.45-.163-2.715.609m161.715.206c2.044.883 3.297 1.058 1.6.224-.88-.432-1.87-.776-2.2-.764-.33.012-.06.255.6.54M112.527 51.19c-3.907 1.587-11.327 5.104-11.327 5.369 0 .252.347.107 4.6-1.912 1.76-.836 4.72-2.138 6.578-2.894 1.857-.757 3.462-1.46 3.566-1.564.434-.434-.714-.098-3.417 1.001m172.073-.813c2.557 1.218 6.698 2.859 6.844 2.712.193-.192-5.092-2.453-6.644-2.842-.845-.212-.876-.192-.2.13m7.4 3.014c0 .094 1.562.902 3.47 1.797 3.061 1.434 10.971 6.005 13.713 7.924.541.378.853.476.694.216-.89-1.451-17.877-10.894-17.877-9.937M43.905 55.083c.497.096 1.217.092 1.6-.008.382-.1-.025-.179-.905-.174-.88.004-1.193.086-.695.182m306.8 0c.497.096 1.217.092 1.6-.008.382-.1-.025-.179-.905-.174-.88.004-1.193.086-.695.182M39 55.472c-.44.099-1.397.366-2.127.594-2.346.732-1.166.689 1.927-.071 2.508-.615 2.686-1.081.2-.523m10.516.305c1.384.319 2.914.677 3.4.797.486.12.323-.041-.362-.357s-2.215-.675-3.4-.797L47 55.199l2.516.578m296.284-.305c-1.444.325-3.456 1.005-3.327 1.126.07.064 1.567-.208 3.327-.605 1.76-.398 2.66-.718 2-.712-.66.007-1.56.093-2 .191m11.4.49c3.09.793 4.278.848 1.927.09-.73-.236-2.137-.526-3.127-.644-1.26-.152-.9.015 1.2.554M32.107 58.226c-3.87 2.193-10.704 10.11-9.643 11.171.085.086.683-.869 1.329-2.121C25.305 64.343 29.924 59.74 33 58.1c1.32-.703 2.22-1.281 2-1.283-.22-.003-1.522.631-2.893 1.409M54 56.882c.581.527 6.453 3.528 6.245 3.191-.317-.512-4.146-2.669-5.445-3.067-.55-.168-.91-.224-.8-.124m42.983 1.97C93.155 61.044 90 63.115 90 63.433c0 .211.447-.045 3.2-1.835.99-.644 3.105-1.913 4.7-2.821 2.495-1.419 3.281-1.977 2.783-1.977-.064 0-1.729.923-3.7 2.052m242.026-.8c-2.527 1.305-5.809 3.447-5.809 3.791 0 .231.543-.059 2.019-1.078.56-.387 2.36-1.435 4-2.329 3.475-1.894 3.307-2.201-.21-.384m23.991.054c2.193 1.174 6.957 5.498 8.717 7.911l.717.983-.479-1c-1.326-2.767-6.307-7.301-9.477-8.625-2.252-.941-2.036-.638.522.731M60.8 60.559c0 .101.765.7 1.7 1.329 2.498 1.683 2.7 1.791 2.697 1.436-.002-.294-.948-.95-3.497-2.428-.495-.287-.9-.439-.9-.337m267.787 4.295c-2.193 1.57-4.916 3.64-6.051 4.6-2.458 2.08-2.17 2.043-3.922.505-1.775-1.559-1.877-1.169-.114.435 1.687 1.534 1.577 1.556 4.655-.926 1.455-1.173 4.22-3.264 6.145-4.647 3.083-2.215 3.811-2.821 3.387-2.821-.062 0-1.907 1.284-4.1 2.854M65.6 63.728c0 .096 1.395 1.217 3.1 2.491s4.497 3.473 6.205 4.887l3.105 2.571 2.391-2.213c1.315-1.218 3.923-3.41 5.795-4.872 1.872-1.462 3.404-2.744 3.404-2.849 0-.527-6.467 4.56-10.322 8.121l-1.369 1.265-2.855-2.401c-4.258-3.581-9.454-7.428-9.454-7m245.2.351c1.247 1.208 6 4.721 5.99 4.428-.01-.307-4.713-3.996-5.94-4.658-.576-.312-.582-.286-.05.23m61.792 3.721c.171.44.673 1.7 1.116 2.8 4.407 10.945-2.184 24.605-14.819 30.711-1.822.88-3.227 1.684-3.124 1.787.348.349 7.918-3.876 10.025-5.594 8.028-6.55 11.505-17.603 8.405-26.719-.553-1.625-1.209-3.142-1.459-3.37-.332-.304-.371-.2-.144.385M21.627 71.28c-.256.726-.54 2.49-.631 3.92l-.165 2.6.374-2.329c.205-1.281.553-2.981.773-3.778.512-1.852.26-2.147-.351-.413M349 72.983c-2.457.583-5.914 1.833-7.507 2.712-1.936 1.069-5.093 3.16-5.093 3.372 0 .124.458-.075 1.018-.442 7.886-5.167 17.144-7.224 21.764-4.834 2.747 1.42 1.614 4.46-1.523 4.083-1.22-.147-1.584-.104-1.059.123 1.441.624 2.836.429 3.73-.523 3.249-3.458-3.842-6.269-11.33-4.491m-308.5.904c.605.091 1.595.091 2.2 0 .605-.092.11-.167-1.1-.167-1.21 0-1.705.075-1.1.167m-4.541 1.027c-.747.502-1.415 1.303-1.484 1.779-.134.927.641 2.724 1.014 2.351.124-.124-.001-.497-.277-.829-.866-1.044-.159-2.459 1.685-3.371.937-.464 1.415-.844 1.062-.844-.352 0-1.252.411-2 .914m11.471.032c1.776.488 4.706 1.636 6.512 2.552 1.806.916 3.162 1.471 3.015 1.232-.723-1.17-9.868-4.761-11.957-4.695-.44.013.653.423 2.43.911m303.37 2.842c0 .104.987.655 2.193 1.226 5.946 2.813 9.57 8.746 6.086 9.963-1.586.555-2.599-.247-4.105-3.244-.329-.655-2.988-2.366-4.179-2.689-.577-.156-.323.091.605.589 2.148 1.154 3.329 2.278 4.222 4.018 1.068 2.081 3.211 2.659 4.516 1.218 1.508-1.667.261-5.006-2.819-7.545-2.654-2.187-6.519-4.284-6.519-3.536M20.988 80.856c.096 1.461.45 3.261.789 4 .358.784.513.941.371.378-.134-.531-.489-2.331-.789-4l-.544-3.034.173 2.656M39.2 78.775c-.62.182.292.297 2.4.302 2.14.005 3.029-.104 2.4-.295-1.272-.384-3.509-.388-4.8-.007m7.2.85c.955.424.886.485-1.546 1.376-1.401.512-2.745 1.13-2.988 1.373-.243.243.675-.012 2.038-.566 1.364-.555 2.743-1.008 3.064-1.008 1.55 0 1.269-1.046-.369-1.377-1.157-.233-1.164-.226-.199.202m12.2.552c1.846 1.637 3.401 2.713 3.395 2.35-.005-.302-1.104-1.148-3.595-2.765-.758-.492-.71-.392.2.415m274.83.965c-2.497 2.059-3.474 3.446-3.126 4.438.312.888 1.347 2.02 1.847 2.02.235 0 .027-.28-.462-.623-1.873-1.312.012-4.803 3.712-6.874.436-.243.694-.541.574-.661s-1.265.645-2.545 1.7m6.763 1.12c-.876.583-2.493 1.813-3.593 2.733-1.1.919-2.36 1.876-2.8 2.126-.44.25-.572.46-.294.467.279.007 1.809-1.047 3.4-2.342 4.65-3.783 6.301-4.14 12.094-2.618.624.164.668.126.2-.171-.689-.438-4.846-1.257-6.381-1.257-.568 0-1.75.478-2.626 1.062M39.564 83.869c-1.611 1.262-3.059 2.957-3.409 3.991-.138.407.213.087.779-.711.566-.799 1.802-2.1 2.747-2.893 1.992-1.669 1.902-1.968-.117-.387m22.836-.978c0 .136.54.787 1.2 1.447 3.438 3.439-.321 5.543-4.136 2.316-2.281-1.929-3.81-2.842-4.165-2.486-.128.127-.046.232.181.232.228 0 1.812 1.08 3.52 2.4 3.468 2.68 3.661 2.739 5.146 1.571 1.51-1.188 1.392-2.687-.346-4.371-.77-.746-1.4-1.245-1.4-1.109m-13.6 2.064c-3.871.858-7.136 2.967-8.386 5.417-.838 1.644-2.081 2.235-3.313 1.575-.423-.226-.867-.314-.987-.194-.12.119.273.44.872.713 1.405.64 2.955-.152 3.814-1.949 1.428-2.987 5.828-5.124 12-5.829 1.378-.157 1.375-.16-.2-.19-.88-.017-2.59.189-3.8.457m-26.4 1.591c0 .508 1.155 3.054 1.385 3.054.124 0-.052-.666-.392-1.479-.628-1.502-.993-2.081-.993-1.575M35.693 90c0 .77.082 1.085.183.7.1-.385.1-1.015 0-1.4-.101-.385-.183-.07-.183.7m-11.055 1.2c.879 1.816 6.356 7.289 8.162 8.156 1.356.651 1.371.65.474-.042-3.607-2.782-5.636-4.633-6.674-6.084-2.245-3.141-2.755-3.668-1.962-2.03m9.762 9.002c0 .221 2.248 1.398 2.669 1.398.409 0-1.078-.998-1.969-1.321-.385-.14-.7-.174-.7-.077m3.4 1.707c.492.525 10.608 5.017 10.82 4.804.084-.083-2.226-1.207-5.134-2.496-2.907-1.289-5.466-2.432-5.686-2.539-.267-.13-.267-.053 0 .231m314.7 2.287c-.715.311-1.3.655-1.3.764 0 .27 2.505-.583 2.98-1.015.565-.513-.175-.403-1.68.251m-3.9 1.811c-.892.438-1.158.677-.6.54 1.169-.288 3.186-1.312 2.6-1.32-.22-.004-1.12.348-2 .78M50 107.336c.55.31 1.45.683 2 .829l1 .264-1-.565c-.55-.31-1.45-.683-2-.829l-1-.264 1 .565m294.9.06c-1.434.624-1.507.951-.666 3.004.582 1.421.539.388-.069-1.665-.143-.484.132-.737 1.015-.931.666-.146 1.314-.432 1.439-.635.313-.506-.183-.44-1.719.227M54.307 109.02c1.119.503 1.276.745 1.097 1.684l-.209 1.096.448-1.135c.512-1.299.247-1.666-1.443-1.997l-1.2-.235 1.307.587m.153 4.253c-.231.73-.517 2.047-.635 2.927-.13.964.092.491.558-1.188.786-2.833.845-4.165.077-1.739M345.078 113c.135.66.478 1.92.762 2.8l.517 1.6-.231-1.6c-.126-.88-.469-2.14-.762-2.8l-.531-1.2.245 1.2m1.362 4.769c-.066.611 1.223 7.216 1.45 7.431.354.336-.319-4.335-.882-6.121-.291-.923-.547-1.513-.568-1.31m-293.762 2.903c-.717 3.266-1.232 6.806-.95 6.528.28-.276 1.896-8.909 1.704-9.101-.085-.086-.425 1.072-.754 2.573M348.67 130.6c.122 1.76.373 4.28.557 5.6.263 1.882.29 1.536.125-1.6-.115-2.2-.366-4.72-.557-5.6-.251-1.159-.285-.718-.125 1.6m-297.811.887c-.247 1.932-.52 5.853-.606 8.713-.086 2.86-.087 4.39-.001 3.4.087-.99.434-4.836.772-8.547.662-7.257.567-9.296-.165-3.566M349.734 141.6c0 1.65.071 2.325.157 1.5.087-.825.087-2.175 0-3-.086-.825-.157-.15-.157 1.5M197.3 151.894c1.045.082 2.755.082 3.8 0s.19-.15-1.9-.15-2.945.068-1.9.15m-6.9.706c-2.406.697-1.177.71 1.6.017 1.21-.302 1.75-.547 1.2-.544-.55.003-1.81.24-2.8.527m17.2.177c1.65.416 3.063.693 3.14.616.191-.19-2.571-.895-4.54-1.158-.88-.118-.25.126 1.4.542m4.054 1.01c.361.361 3.146 1.421 3.146 1.198 0-.124-.624-.487-1.387-.805-1.393-.582-2.108-.742-1.759-.393m-27.254.813c-.55.314-.82.572-.6.572.22 0 .85-.258 1.4-.572.55-.314.82-.572.6-.572-.22 0-.85.258-1.4.572m-2.7 1.396c-.715.436-1.3.879-1.3.985 0 .105.63-.18 1.4-.634.77-.454 1.4-.898 1.4-.987 0-.255-.126-.202-1.5.636m-8.285 10.104c-.312.974-.45 3.495-.176 3.2.154-.165.347-1.065.431-2 .15-1.69.051-2.157-.255-1.2m51.785 2.076c0 .537.147 1.068.328 1.179.18.112.249-.328.154-.976-.21-1.43-.482-1.544-.482-.203M349.797 287c0 50.6.046 71.241.103 45.868.057-25.373.057-66.773 0-92-.057-25.227-.103-4.468-.103 46.132m-200.511-89.207c-2.467 9.225 3.097 15.919 14.781 17.786 4.132.66 9.935 1.195 10.521.97.818-.314 2.273-6.218 2.133-8.653l-.121-2.096-5.369-.483c-11.651-1.048-19.574-4.248-21.165-8.55-.237-.641-.386-.446-.78 1.026m97.561 1.044c-3.089 3.446-9.329 5.542-19.247 6.466l-5.4.502-.139 1.798c-.153 1.983.612 7.944 1.126 8.775.494.8 10.584.314 14.213-.684 8.272-2.276 12.36-6.664 12.387-13.294.023-5.999-.35-6.452-2.94-3.563M221.914 231.2c-.49 1.709-2.766 4.061-4.886 5.048-2.023.942-2.07.944-17.741.948l-15.714.004-1.934-.98c-1.987-1.007-3.788-2.8-4.238-4.218-.557-1.753-1.001-.632-1.001 2.527 0 10.177 2.594 11.471 23 11.471 20.561 0 23.224-1.384 22.914-11.908-.07-2.409-.223-3.511-.4-2.892"
      fill="#509aaa"/>
  </g>
</svg>
